<svg id="Capa_1" enable-background="new 0 0 512 512" height="512" viewBox="0 0 512 512" width="512" xmlns="http://www.w3.org/2000/svg"><g><g><g><path d="m482.515 403.782h-453.03c-11.783 0-21.335-9.552-21.335-21.335v-306.321c0-11.783 9.552-21.335 21.335-21.335h453.03c11.783 0 21.335 9.552 21.335 21.335v306.321c0 11.783-9.552 21.335-21.335 21.335z" fill="#f9f3f1"/></g><g><path d="m503.854 76.125v306.32c0 11.785-9.56 21.335-21.335 21.335h-19.958c11.775 0 21.335-9.55 21.335-21.335v-306.32c0-11.785-9.56-21.335-21.335-21.335h19.958c11.776 0 21.335 9.55 21.335 21.335z" fill="#efe2dd"/></g><g><path d="m375.602 504.516h-239.204v-21.402c0-12.322 9.989-22.311 22.311-22.311h194.582c12.322 0 22.311 9.989 22.311 22.311z" fill="#0067c5"/></g><g><path d="m375.606 483.112v21.405h-19.958v-21.405c0-12.324-9.989-22.313-22.313-22.313h19.958c12.325 0 22.313 9.989 22.313 22.313z" fill="#0055a3"/></g><g><path d="m192.977 403.782h126.047v57.021h-126.047z" fill="#82aee3"/></g><g><path d="m299.066 403.782h19.958v57.021h-19.958z" fill="#528fd8"/></g><g><path d="m482.515 403.782h-453.03c-11.783 0-21.335-9.552-21.335-21.335v-27.478h495.7v27.478c0 11.783-9.552 21.335-21.335 21.335z" fill="#0067c5"/></g><g><path d="m503.854 354.964v27.482c0 11.785-9.56 21.335-21.335 21.335h-19.958c11.775 0 21.335-9.55 21.335-21.335v-27.482z" fill="#0055a3"/></g></g><g><path d="m454.463 162.129h-380.023c-6.573 0-11.901-5.328-11.901-11.901v-130.842c0-6.573 5.328-11.901 11.901-11.901h380.023c6.573 0 11.901 5.328 11.901 11.901v130.842c0 6.573-5.329 11.901-11.901 11.901z" fill="#fd9468"/></g><g><path d="m466.364 19.381v130.843c0 6.576-5.329 11.905-11.905 11.905h-19.958c6.576 0 11.905-5.329 11.905-11.905v-130.843c0-6.566-5.329-11.895-11.905-11.895h19.958c6.576 0 11.905 5.329 11.905 11.895z" fill="#fe7d43"/></g><g><path d="m392.435 97.551c-.013 0-.023 0-.036 0-8.919 0-16.932 5.301-20.421 13.513-1.616 3.804.158 8.198 3.962 9.815.955.406 1.947.598 2.923.598 2.912 0 5.681-1.711 6.892-4.56 1.135-2.673 3.742-4.397 6.644-4.397h.012c2.882.004 5.479 1.718 6.621 4.366 1.634 3.796 6.038 5.549 9.834 3.912 3.796-1.635 5.548-6.038 3.912-9.835-3.504-8.134-11.489-13.398-20.343-13.412z"/><path d="m482.515 47.307h-8.667v-27.921c0-10.69-8.696-19.386-19.386-19.386h-380.023c-10.688 0-19.384 8.696-19.384 19.386v27.922h-25.57c-15.891 0-28.819 12.928-28.819 28.819v306.321c0 15.891 12.928 28.819 28.819 28.819h69.661c4.134 0 7.484-3.351 7.484-7.484s-3.35-7.484-7.484-7.484h-69.661c-7.637 0-13.851-6.213-13.851-13.851v-19.994h480.731v19.994c0 7.638-6.213 13.851-13.851 13.851h-348.231c-4.134 0-7.484 3.351-7.484 7.484s3.35 7.484 7.484 7.484h51.209v42.052h-26.784c-16.429 0-29.794 13.366-29.794 29.795v21.402c0 4.133 3.35 7.484 7.484 7.484h239.204c4.134 0 7.484-3.351 7.484-7.484v-21.402c0-16.429-13.366-29.795-29.795-29.795h-26.783v-42.052h156.007c15.891 0 28.819-12.928 28.819-28.819v-306.322c0-15.89-12.928-28.819-28.819-28.819zm-114.397 435.807v13.918h-224.235v-13.918c0-8.176 6.651-14.827 14.826-14.827h194.583c8.175 0 14.826 6.651 14.826 14.827zm-56.578-29.796h-111.079v-42.052h111.079zm184.826-105.834h-480.732v-271.358c0-7.637 6.213-13.85 13.851-13.85h25.57v87.952c0 10.689 8.696 19.385 19.385 19.385h285.986c4.134 0 7.484-3.351 7.484-7.484s-3.35-7.484-7.484-7.484h-285.987c-2.435 0-4.416-1.982-4.416-4.417v-130.842c0-2.436 1.981-4.417 4.416-4.417h380.023c2.436 0 4.417 1.982 4.417 4.417v130.842c0 2.435-1.981 4.417-4.417 4.417h-59.471c-4.134 0-7.484 3.351-7.484 7.484s3.35 7.484 7.484 7.484h59.471c10.689 0 19.386-8.696 19.386-19.385v-87.952h8.667c7.637 0 13.851 6.213 13.851 13.85z"/><path d="m126.066 49.786c-4.134 0-7.484 3.351-7.484 7.484v31.979l-24.95-36.129c-1.861-2.695-5.256-3.865-8.386-2.892-3.126.975-5.257 3.87-5.257 7.145v54.971c0 4.133 3.35 7.484 7.484 7.484s7.484-3.351 7.484-7.484v-30.964l23.528 34.07c2.176 3.145 5.816 4.476 9.268 3.398 3.521-1.099 5.796-4.381 5.796-8.36v-53.218c.001-4.134-3.349-7.484-7.483-7.484z"/><path d="m176.921 65.257c4.134 0 7.484-3.351 7.484-7.484s-3.35-7.484-7.484-7.484h-22.994c-4.134 0-7.484 3.351-7.484 7.484v54.571c0 4.133 3.35 7.484 7.484 7.484h22.994c4.134 0 7.484-3.351 7.484-7.484s-3.35-7.484-7.484-7.484h-15.51v-12.318h13.814c4.134 0 7.484-3.351 7.484-7.484s-3.35-7.484-7.484-7.484h-13.814v-12.317z"/><path d="m311.667 78.219c-6.662-2.457-12.87-5.131-14.884-6.011-1.201-1.014-1.158-2.4-1.074-2.984.124-.858.756-2.958 3.96-3.923 7.434-2.237 14.385 3.221 14.605 3.395 3.163 2.622 7.854 2.202 10.502-.948 2.66-3.164 2.251-7.885-.913-10.545-.531-.446-13.16-10.86-28.511-6.233-7.829 2.358-13.37 8.538-14.459 16.128-1.024 7.136 2.07 14.002 8.076 17.917.33.216.677.404 1.038.565.32.143 7.921 3.526 16.481 6.684 1.773.654 7.507 3.08 6.838 6.83-.506 2.835-4.022 5.768-9.03 5.768-5.308 0-10.409-2.133-13.647-5.705-2.777-3.064-7.51-3.295-10.571-.52-3.063 2.776-3.296 7.509-.521 10.571 6.118 6.751 15.135 10.622 24.739 10.622 11.898 0 21.892-7.614 23.765-18.105 1.413-7.92-2.152-18.253-16.394-23.506z"/><path d="m264.164 50.031c-4.059-.806-7.994 1.826-8.801 5.88l-5.919 29.738-9.42-30.582c-1.217-3.95-5.406-6.164-9.356-4.949-2.664.82-4.533 2.994-5.099 5.532l-9.288 30.005-5.902-29.837c-.802-4.055-4.741-6.692-8.794-5.89-4.055.802-6.692 4.739-5.89 8.794 0 0 10.898 54.958 11.02 55.302 1.237 3.479 4.536 5.805 8.223 5.805h.061c3.712-.026 7.009-2.405 8.202-5.92.021-.064 9.667-31.221 9.667-31.221s9.625 31.236 9.661 31.336c1.237 3.479 4.536 5.805 8.223 5.805h.061c3.712-.026 7.009-2.405 8.202-5.92.105-.31 11.026-55.077 11.026-55.077.809-4.054-1.823-7.995-5.877-8.801z"/><path d="m392.574 63.107c16.52.026 31.965 6.559 43.493 18.395 1.467 1.506 3.414 2.262 5.363 2.262 1.882 0 3.765-.706 5.22-2.122 2.961-2.884 3.024-7.622.14-10.584-14.363-14.747-33.608-22.887-54.193-22.92-.041 0-.08 0-.121 0-19.633 0-38.249 7.474-52.428 21.053-2.985 2.859-3.087 7.596-.229 10.582 2.86 2.985 7.597 3.087 10.582.229 11.379-10.898 26.317-16.895 42.075-16.895z"/><path d="m392.472 87.401c9.246.015 18.046 3.507 24.778 9.835 3.012 2.83 7.748 2.684 10.579-.328s2.684-7.748-.327-10.579c-9.513-8.94-21.945-13.875-35.006-13.895-.028 0-.054 0-.083 0-13.089 0-25.547 4.933-35.085 13.896-3.012 2.83-3.159 7.567-.33 10.579 1.474 1.568 3.462 2.359 5.455 2.359 1.838 0 3.68-.672 5.124-2.03 6.751-6.344 15.569-9.835 24.836-9.835.02-.002.039-.002.059-.002z"/><path d="m466.364 215.262h-403.825c-4.134 0-7.484 3.351-7.484 7.484s3.35 7.484 7.484 7.484h403.825c4.134 0 7.484-3.351 7.484-7.484 0-4.134-3.35-7.484-7.484-7.484z"/><path d="m466.364 251.062h-403.825c-4.134 0-7.484 3.351-7.484 7.484s3.35 7.484 7.484 7.484h403.825c4.134 0 7.484-3.351 7.484-7.484s-3.35-7.484-7.484-7.484z"/><path d="m466.364 286.863h-403.825c-4.134 0-7.484 3.351-7.484 7.484s3.35 7.484 7.484 7.484h403.825c4.134 0 7.484-3.351 7.484-7.484s-3.35-7.484-7.484-7.484z"/></g></g></svg>